# xmcd
#
# Track frame offsets:
#	150
#	26644
#	53248
#	73800
#	87363
#	104338
#	127598
#	145684
#	160042
#	175058
#	189558
#
# Disc length: 2861 seconds
#
# Revision: 0
# Processed by: cddbd v1.5.2PL0 Copyright (c) Steve Scherf et al.
# Submitted via: EasyCDDAExtractor 8.2.4.1
#
DISCID=8c0b2b0b
DTITLE=Green Grass - Blues dla Majki
DYEAR=2006
DGENRE=Blues
TTITLE0=Blues dla Majki
TTITLE1=Niebieska Nadzieja
TTITLE2=One Man Band
TTITLE3=Kolejny Wieczor w Knajpie
TTITLE4=One By One
TTITLE5=Wiara
TTITLE6=Rozstanie z Konkubina
TTITLE7=Golebi Szmer
TTITLE8=To Wszystko
TTITLE9=W Droge
TTITLE10=Pociag Widmo
EXTD=
EXTT0=
EXTT1=
EXTT2=
EXTT3=
EXTT4=
EXTT5=
EXTT6=
EXTT7=
EXTT8=
EXTT9=
EXTT10=
PLAYORDER=
